<svg width="141" height="47" viewBox="0 0 141 47" fill="none" xmlns="http://www.w3.org/2000/svg">
<g filter="url(#filter0_i)">
<path d="M55.5276 38.432C54.5436 38.432 53.7156 38.264 53.0436 37.928C52.3956 37.592 51.8196 37.028 51.3156 36.236C50.8356 35.42 50.3916 34.304 49.9836 32.888L44.1516 12.8H49.2276L54.7356 32.816C54.9036 33.44 55.1676 33.752 55.5276 33.752C55.8876 33.752 56.1516 33.44 56.3196 32.816L61.8276 12.8H66.9036L61.0716 32.888C60.6636 34.304 60.2076 35.42 59.7036 36.236C59.2236 37.028 58.6476 37.592 57.9756 37.928C57.3276 38.264 56.5116 38.432 55.5276 38.432ZM72.1996 18.812C71.4556 18.812 70.8196 18.548 70.2916 18.02C69.7636 17.492 69.4996 16.856 69.4996 16.112C69.4996 15.392 69.7636 14.768 70.2916 14.24C70.8196 13.688 71.4556 13.412 72.1996 13.412C72.9196 13.412 73.5436 13.688 74.0716 14.24C74.6236 14.768 74.8996 15.392 74.8996 16.112C74.8996 16.856 74.6236 17.492 74.0716 18.02C73.5436 18.548 72.9196 18.812 72.1996 18.812ZM73.1356 38.432C71.9116 37.808 71.0596 37.1 70.5796 36.308C70.0996 35.492 69.8596 34.364 69.8596 32.924V21.08H74.5396V32.78C74.5396 33.428 74.6596 33.956 74.8996 34.364C75.1636 34.772 75.6196 35.216 76.2676 35.696L73.1356 38.432ZM86.7534 38.432C84.2574 38.432 82.3374 37.856 80.9934 36.704C79.6494 35.552 78.9774 33.908 78.9774 31.772V27.308C78.9774 25.172 79.6494 23.528 80.9934 22.376C82.3374 21.224 84.2574 20.648 86.7534 20.648C89.8734 20.648 92.1054 21.596 93.4494 23.492L90.2454 26.084C89.6694 25.412 89.1414 24.944 88.6614 24.68C88.1814 24.392 87.5454 24.248 86.7534 24.248C85.7694 24.248 85.0014 24.512 84.4494 25.04C83.9214 25.568 83.6574 26.324 83.6574 27.308V31.772C83.6574 32.756 83.9214 33.512 84.4494 34.04C85.0014 34.568 85.7694 34.832 86.7534 34.832C87.5454 34.832 88.1814 34.7 88.6614 34.436C89.1414 34.148 89.6694 33.668 90.2454 32.996L93.4494 35.588C92.7774 36.548 91.9134 37.268 90.8574 37.748C89.8014 38.204 88.4334 38.432 86.7534 38.432ZM99.0941 18.812C98.3501 18.812 97.7141 18.548 97.1861 18.02C96.6581 17.492 96.3941 16.856 96.3941 16.112C96.3941 15.392 96.6581 14.768 97.1861 14.24C97.7141 13.688 98.3501 13.412 99.0941 13.412C99.8141 13.412 100.438 13.688 100.966 14.24C101.518 14.768 101.794 15.392 101.794 16.112C101.794 16.856 101.518 17.492 100.966 18.02C100.438 18.548 99.8141 18.812 99.0941 18.812ZM100.03 38.432C98.8061 37.808 97.9541 37.1 97.4741 36.308C96.9941 35.492 96.7541 34.364 96.7541 32.924V21.08H101.434V32.78C101.434 33.428 101.554 33.956 101.794 34.364C102.058 34.772 102.514 35.216 103.162 35.696L100.03 38.432ZM109.008 18.812C108.264 18.812 107.628 18.548 107.1 18.02C106.572 17.492 106.308 16.856 106.308 16.112C106.308 15.392 106.572 14.768 107.1 14.24C107.628 13.688 108.264 13.412 109.008 13.412C109.728 13.412 110.352 13.688 110.88 14.24C111.432 14.768 111.708 15.392 111.708 16.112C111.708 16.856 111.432 17.492 110.88 18.02C110.352 18.548 109.728 18.812 109.008 18.812ZM109.944 38.432C108.72 37.808 107.868 37.1 107.388 36.308C106.908 35.492 106.668 34.364 106.668 32.924V21.08H111.348V32.78C111.348 33.428 111.468 33.956 111.708 34.364C111.972 34.772 112.428 35.216 113.076 35.696L109.944 38.432ZM118.922 18.812C118.178 18.812 117.542 18.548 117.014 18.02C116.486 17.492 116.222 16.856 116.222 16.112C116.222 15.392 116.486 14.768 117.014 14.24C117.542 13.688 118.178 13.412 118.922 13.412C119.642 13.412 120.266 13.688 120.794 14.24C121.346 14.768 121.622 15.392 121.622 16.112C121.622 16.856 121.346 17.492 120.794 18.02C120.266 18.548 119.642 18.812 118.922 18.812ZM119.858 38.432C118.634 37.808 117.782 37.1 117.302 36.308C116.822 35.492 116.582 34.364 116.582 32.924V21.08H121.262V32.78C121.262 33.428 121.382 33.956 121.622 34.364C121.886 34.772 122.342 35.216 122.99 35.696L119.858 38.432ZM139.848 34.4V38H128.976C127.656 38 126.66 37.76 125.988 37.28C125.316 36.8 124.98 36.02 124.98 34.94V33.032L134.052 24.68H125.34V21.08H139.38V24.608L129.228 34.004C129.396 34.268 129.72 34.4 130.2 34.4H139.848Z" fill="#46DC67"/>
</g>
<path d="M36.3672 21.0383V16.2394C36.3672 14.6437 35.1203 13.3789 33.5875 13.3789H4.41216C2.87969 13.3789 1.63281 14.6437 1.63281 16.2394V39.7606C1.63281 41.3563 2.87969 42.6211 4.41216 42.6211H33.5875C35.1203 42.6211 36.3672 41.3563 36.3672 39.7606V21.0494C36.3672 21.0475 36.3672 21.0456 36.3672 21.0437C36.3672 21.0418 36.3672 21.0399 36.3672 21.0383V21.0383ZM4.41216 14.2695H33.5875C34.629 14.2695 35.4766 15.1349 35.4766 16.2394V20.5781H2.52344V16.2394C2.52344 15.1349 3.37072 14.2695 4.41216 14.2695V14.2695ZM33.5875 41.7305H4.41216C3.37072 41.7305 2.52344 40.8651 2.52344 39.7606V21.4688H35.4766V39.7606C35.4766 40.8651 34.629 41.7305 33.5875 41.7305Z" fill="url(#paint0_linear)"/>
<path d="M10.6363 19.5414C11.7398 19.5414 12.6377 18.6094 12.6377 17.4638C12.6377 16.3181 11.7396 15.3861 10.6363 15.3861C9.53293 15.3861 8.63489 16.318 8.63489 17.4638C8.63489 18.6095 9.53264 19.5414 10.6363 19.5414ZM10.6363 16.2767C11.2487 16.2767 11.747 16.8092 11.747 17.4638C11.747 18.1183 11.2487 18.6508 10.6363 18.6508C10.0238 18.6508 9.52551 18.1183 9.52551 17.4638C9.52551 16.8092 10.0238 16.2767 10.6363 16.2767Z" fill="url(#paint1_linear)"/>
<path d="M15.6934 19.5414C16.797 19.5414 17.6948 18.6094 17.6948 17.4638C17.6948 16.3181 16.7967 15.3861 15.6934 15.3861C14.5901 15.3861 13.692 16.318 13.692 17.4638C13.692 18.6095 14.5898 19.5414 15.6934 19.5414ZM15.6934 16.2767C16.3059 16.2767 16.8042 16.8092 16.8042 17.4638C16.8042 18.1183 16.3059 18.6508 15.6934 18.6508C15.0809 18.6508 14.5826 18.1183 14.5826 17.4638C14.5826 16.8092 15.0812 16.2767 15.6934 16.2767Z" fill="url(#paint2_linear)"/>
<path d="M5.57914 19.5414C6.6827 19.5414 7.58052 18.6094 7.58052 17.4638C7.58052 16.3181 6.68248 15.3861 5.57914 15.3861C4.47581 15.3861 3.57776 16.318 3.57776 17.4638C3.57776 18.6095 4.47536 19.5414 5.57914 19.5414ZM5.57914 16.2767C6.19159 16.2767 6.6899 16.8092 6.6899 17.4638C6.6899 18.1183 6.19159 18.6508 5.57914 18.6508C4.96669 18.6508 4.46838 18.1183 4.46838 17.4638C4.46838 16.8092 4.96669 16.2767 5.57914 16.2767Z" fill="url(#paint3_linear)"/>
<path d="M17.6399 28.7119C17.6047 28.6652 17.5605 28.626 17.5101 28.5964C17.4597 28.5668 17.4039 28.5474 17.346 28.5394C17.288 28.5313 17.2291 28.5348 17.1725 28.5495C17.1159 28.5643 17.0628 28.59 17.0161 28.6253L13.4986 31.2851C13.4437 31.3266 13.3992 31.3803 13.3685 31.4419C13.3379 31.5035 13.3219 31.5714 13.3219 31.6402C13.3219 31.7091 13.3379 31.777 13.3685 31.8386C13.3992 31.9002 13.4437 31.9539 13.4986 31.9954L17.0161 34.6553C17.0627 34.691 17.1159 34.7172 17.1727 34.7323C17.2295 34.7474 17.2887 34.7512 17.3469 34.7433C17.4051 34.7354 17.4612 34.7161 17.5119 34.6865C17.5626 34.6568 17.607 34.6175 17.6424 34.5706C17.6779 34.5238 17.7037 34.4703 17.7184 34.4135C17.7331 34.3566 17.7364 34.2974 17.7281 34.2392C17.7198 34.1811 17.7001 34.1251 17.6701 34.0746C17.6401 34.0241 17.6004 33.98 17.5533 33.9449L14.5055 31.6403L17.5533 29.3359C17.6 29.3007 17.6393 29.2565 17.6689 29.2061C17.6985 29.1556 17.7179 29.0998 17.7259 29.0419C17.734 28.9839 17.7305 28.9249 17.7158 28.8683C17.701 28.8117 17.6752 28.7586 17.6399 28.7119V28.7119Z" fill="url(#paint4_linear)"/>
<path d="M20.3601 28.7119C20.289 28.8061 20.2581 28.9246 20.2744 29.0415C20.2906 29.1584 20.3526 29.2641 20.4467 29.3353L23.4945 31.64L20.4467 33.9449C20.3996 33.98 20.3599 34.0241 20.3299 34.0746C20.2999 34.1251 20.2802 34.1811 20.2719 34.2392C20.2636 34.2974 20.2669 34.3566 20.2816 34.4135C20.2963 34.4703 20.3222 34.5238 20.3576 34.5706C20.393 34.6175 20.4374 34.6568 20.4881 34.6865C20.5388 34.7161 20.5949 34.7354 20.6531 34.7433C20.7113 34.7512 20.7705 34.7474 20.8273 34.7323C20.8841 34.7172 20.9373 34.691 20.9839 34.6553L24.5014 31.9954C24.5563 31.9539 24.6008 31.9002 24.6315 31.8386C24.6622 31.777 24.6781 31.7091 24.6781 31.6402C24.6781 31.5714 24.6622 31.5035 24.6315 31.4419C24.6008 31.3803 24.5563 31.3266 24.5014 31.2851L20.9839 28.6253C20.9373 28.59 20.8841 28.5643 20.8275 28.5495C20.7709 28.5348 20.712 28.5313 20.6541 28.5394C20.5961 28.5474 20.5404 28.5668 20.4899 28.5964C20.4395 28.626 20.3954 28.6652 20.3601 28.7119V28.7119Z" fill="url(#paint5_linear)"/>
<path d="M19.6669 27.2547C19.5502 27.2372 19.4313 27.2667 19.3363 27.3367C19.2413 27.4068 19.1779 27.5116 19.16 27.6283L17.9594 35.5618C17.9506 35.6196 17.9533 35.6786 17.9673 35.7354C17.9814 35.7921 18.0064 35.8456 18.0411 35.8927C18.0758 35.9398 18.1194 35.9796 18.1695 36.0098C18.2195 36.04 18.2751 36.0601 18.3329 36.0689C18.4497 36.0866 18.5687 36.0572 18.6638 35.9871C18.7109 35.9525 18.7507 35.9088 18.7809 35.8588C18.8111 35.8087 18.8312 35.7532 18.84 35.6954L20.0406 27.7619C20.0494 27.7041 20.0467 27.6451 20.0327 27.5883C20.0187 27.5314 19.9936 27.478 19.9589 27.4309C19.9242 27.3838 19.8805 27.344 19.8304 27.3137C19.7803 27.2835 19.7248 27.2634 19.6669 27.2547V27.2547Z" fill="url(#paint6_linear)"/>
<path d="M19 23.443C17.3795 23.443 15.7953 23.9235 14.4478 24.8239C13.1004 25.7242 12.0502 27.0039 11.43 28.5011C10.8098 29.9983 10.6476 31.6458 10.9637 33.2352C11.2799 34.8247 12.0603 36.2847 13.2062 37.4306C14.3521 38.5765 15.8121 39.3569 17.4015 39.673C18.9909 39.9892 20.6384 39.8269 22.1356 39.2068C23.6328 38.5866 24.9125 37.5364 25.8129 36.1889C26.7132 34.8415 27.1938 33.2573 27.1938 31.6367C27.1914 29.4643 26.3273 27.3816 24.7912 25.8455C23.2551 24.3094 21.1724 23.4454 19 23.443V23.443ZM19 38.9398C17.5556 38.9398 16.1436 38.5115 14.9426 37.709C13.7416 36.9066 12.8056 35.766 12.2528 34.4315C11.7001 33.097 11.5554 31.6286 11.8372 30.2119C12.119 28.7953 12.8146 27.494 13.8359 26.4726C14.8573 25.4513 16.1586 24.7557 17.5753 24.4739C18.9919 24.1921 20.4603 24.3367 21.7948 24.8895C23.1293 25.4423 24.2699 26.3783 25.0724 27.5793C25.8748 28.7803 26.3031 30.1923 26.3031 31.6367C26.301 33.573 25.5309 35.4293 24.1618 36.7985C22.7926 38.1676 20.9363 38.9377 19 38.9398V38.9398Z" fill="url(#paint7_linear)"/>
<defs>
<filter id="filter0_i" x="44.1516" y="12.8" width="95.6964" height="29.632" filterUnits="userSpaceOnUse" color-interpolation-filters="sRGB">
<feFlood flood-opacity="0" result="BackgroundImageFix"/>
<feBlend mode="normal" in="SourceGraphic" in2="BackgroundImageFix" result="shape"/>
<feColorMatrix in="SourceAlpha" type="matrix" values="0 0 0 0 0 0 0 0 0 0 0 0 0 0 0 0 0 0 127 0" result="hardAlpha"/>
<feOffset dy="4"/>
<feGaussianBlur stdDeviation="2"/>
<feComposite in2="hardAlpha" operator="arithmetic" k2="-1" k3="1"/>
<feColorMatrix type="matrix" values="0 0 0 0 0 0 0 0 0 0 0 0 0 0 0 0 0 0 0.25 0"/>
<feBlend mode="normal" in2="shape" result="effect1_innerShadow"/>
</filter>
<linearGradient id="paint0_linear" x1="19.0001" y1="11.2266" x2="19.0001" y2="44.9337" gradientUnits="userSpaceOnUse">
<stop stop-color="#21F49C"/>
<stop offset="1" stop-color="#46DC67"/>
</linearGradient>
<linearGradient id="paint1_linear" x1="1033.34" y1="140.047" x2="1033.34" y2="2027.24" gradientUnits="userSpaceOnUse">
<stop stop-color="#64E680"/>
<stop offset="1" stop-color="#46DC67"/>
<stop offset="1" stop-color="#189333"/>
</linearGradient>
<linearGradient id="paint2_linear" x1="1038.4" y1="140.047" x2="1038.4" y2="2027.24" gradientUnits="userSpaceOnUse">
<stop stop-color="#64E680"/>
<stop offset="1" stop-color="#46DC67"/>
<stop offset="1" stop-color="#189333"/>
</linearGradient>
<linearGradient id="paint3_linear" x1="304.474" y1="140.28" x2="304.474" y2="2027.47" gradientUnits="userSpaceOnUse">
<stop stop-color="#46DC67"/>
<stop offset="1" stop-color="#46DC67"/>
</linearGradient>
<linearGradient id="paint4_linear" x1="1142.45" y1="214.9" x2="1142.45" y2="3036.21" gradientUnits="userSpaceOnUse">
<stop stop-color="#64E680"/>
<stop offset="1" stop-color="#46DC67"/>
<stop offset="1" stop-color="#189333"/>
</linearGradient>
<linearGradient id="paint5_linear" x1="1355.85" y1="214.9" x2="1355.85" y2="3036.21" gradientUnits="userSpaceOnUse">
<stop stop-color="#7CDE92"/>
<stop offset="1" stop-color="#46DC67"/>
</linearGradient>
<linearGradient id="paint6_linear" x1="553.337" y1="291.974" x2="553.337" y2="4299.54" gradientUnits="userSpaceOnUse">
<stop stop-color="#64E680"/>
<stop offset="1" stop-color="#46DC67"/>
<stop offset="1" stop-color="#189333"/>
</linearGradient>
<linearGradient id="paint7_linear" x1="4206.01" y1="515.068" x2="4206.01" y2="7957.6" gradientUnits="userSpaceOnUse">
<stop stop-color="#64E680"/>
<stop offset="1" stop-color="#46DC67"/>
<stop offset="1" stop-color="#189333"/>
</linearGradient>
</defs>
</svg>
